<svg xmlns="http://www.w3.org/2000/svg" xmlns:xlink="http://www.w3.org/1999/xlink" width="200" zoomAndPan="magnify" viewBox="0 0 150 149.999998" height="200" preserveAspectRatio="xMidYMid meet" version="1.0"><defs><clipPath id="id1"><path d="M 5.8125 5.8125 L 144.5625 5.8125 L 144.5625 144.5625 L 5.8125 144.5625 Z M 5.8125 5.8125 " clip-rule="nonzero"/></clipPath><clipPath id="id2"><path d="M 58.125 32.625 L 78.75 32.625 L 78.75 53.25 L 58.125 53.25 Z M 58.125 32.625 " clip-rule="nonzero"/></clipPath><clipPath id="id3"><path d="M 81.75 32.625 L 102.375 32.625 L 102.375 53.25 L 81.75 53.25 Z M 81.75 32.625 " clip-rule="nonzero"/></clipPath><clipPath id="id4"><path d="M 58.125 55.875 L 78.75 55.875 L 78.75 76.5 L 58.125 76.5 Z M 58.125 55.875 " clip-rule="nonzero"/></clipPath><clipPath id="id5"><path d="M 58.125 79.125 L 78.75 79.125 L 78.75 99.75 L 58.125 99.75 Z M 58.125 79.125 " clip-rule="nonzero"/></clipPath><clipPath id="id6"><path d="M 35.25 32.625 L 55.875 32.625 L 55.875 53.25 L 35.25 53.25 Z M 35.25 32.625 " clip-rule="nonzero"/></clipPath><clipPath id="id7"><path d="M 58.125 102.375 L 78.75 102.375 L 78.75 123 L 58.125 123 Z M 58.125 102.375 " clip-rule="nonzero"/></clipPath><clipPath id="id8"><path d="M 81.75 102.375 L 102.375 102.375 L 102.375 123 L 81.75 123 Z M 81.75 102.375 " clip-rule="nonzero"/></clipPath><clipPath id="id9"><path d="M 81.75 79.125 L 102.375 79.125 L 102.375 99.75 L 81.75 99.75 Z M 81.75 79.125 " clip-rule="nonzero"/></clipPath><clipPath id="id10"><path d="M 81.75 55.875 L 102.375 55.875 L 102.375 76.5 L 81.75 76.5 Z M 81.75 55.875 " clip-rule="nonzero"/></clipPath></defs><g clip-path="url(#id1)"><path fill="#f2f2f2" d="M 75.1875 5.8125 C 36.871094 5.8125 5.8125 36.871094 5.8125 75.1875 C 5.8125 113.503906 36.871094 144.5625 75.1875 144.5625 C 113.503906 144.5625 144.5625 113.503906 144.5625 75.1875 C 144.5625 36.871094 113.503906 5.8125 75.1875 5.8125 " fill-opacity="1" fill-rule="nonzero"/></g><g clip-path="url(#id2)"><path fill="#0e994a" d="M 77.410156 53.25 L 59.464844 53.25 C 58.726562 53.25 58.125 52.648438 58.125 51.910156 L 58.125 33.964844 C 58.125 33.226562 58.726562 32.625 59.464844 32.625 L 77.410156 32.625 C 78.148438 32.625 78.75 33.226562 78.75 33.964844 L 78.75 51.910156 C 78.75 52.648438 78.148438 53.25 77.410156 53.25 " fill-opacity="1" fill-rule="nonzero"/></g><g clip-path="url(#id3)"><path fill="#0e994a" d="M 101.035156 53.25 L 83.089844 53.25 C 82.351562 53.25 81.75 52.648438 81.75 51.910156 L 81.75 33.964844 C 81.75 33.226562 82.351562 32.625 83.089844 32.625 L 101.035156 32.625 C 101.773438 32.625 102.375 33.226562 102.375 33.964844 L 102.375 51.910156 C 102.375 52.648438 101.773438 53.25 101.035156 53.25 " fill-opacity="1" fill-rule="nonzero"/></g><g clip-path="url(#id4)"><path fill="#0e994a" d="M 77.410156 76.5 L 59.464844 76.5 C 58.726562 76.5 58.125 75.898438 58.125 75.160156 L 58.125 57.214844 C 58.125 56.476562 58.726562 55.875 59.464844 55.875 L 77.410156 55.875 C 78.148438 55.875 78.75 56.476562 78.75 57.214844 L 78.75 75.160156 C 78.75 75.898438 78.148438 76.5 77.410156 76.5 " fill-opacity="1" fill-rule="nonzero"/></g><g clip-path="url(#id5)"><path fill="#0e994a" d="M 77.410156 99.75 L 59.464844 99.75 C 58.726562 99.75 58.125 99.148438 58.125 98.410156 L 58.125 80.464844 C 58.125 79.726562 58.726562 79.125 59.464844 79.125 L 77.410156 79.125 C 78.148438 79.125 78.75 79.726562 78.75 80.464844 L 78.75 98.410156 C 78.75 99.148438 78.148438 99.75 77.410156 99.75 " fill-opacity="1" fill-rule="nonzero"/></g><g clip-path="url(#id6)"><path fill="#0e994a" d="M 54.535156 53.25 L 36.589844 53.25 C 35.851562 53.25 35.25 52.648438 35.25 51.910156 L 35.25 33.964844 C 35.25 33.226562 35.851562 32.625 36.589844 32.625 L 54.535156 32.625 C 55.273438 32.625 55.875 33.226562 55.875 33.964844 L 55.875 51.910156 C 55.875 52.648438 55.273438 53.25 54.535156 53.25 " fill-opacity="1" fill-rule="nonzero"/></g><g clip-path="url(#id7)"><path fill="#0e994a" d="M 77.410156 123 L 59.464844 123 C 58.726562 123 58.125 122.398438 58.125 121.660156 L 58.125 103.714844 C 58.125 102.976562 58.726562 102.375 59.464844 102.375 L 77.410156 102.375 C 78.148438 102.375 78.75 102.976562 78.75 103.714844 L 78.75 121.660156 C 78.75 122.398438 78.148438 123 77.410156 123 " fill-opacity="1" fill-rule="nonzero"/></g><g clip-path="url(#id8)"><path fill="#0e994a" d="M 101.035156 123 L 83.089844 123 C 82.351562 123 81.75 122.398438 81.75 121.660156 L 81.75 103.714844 C 81.75 102.976562 82.351562 102.375 83.089844 102.375 L 101.035156 102.375 C 101.773438 102.375 102.375 102.976562 102.375 103.714844 L 102.375 121.660156 C 102.375 122.398438 101.773438 123 101.035156 123 " fill-opacity="1" fill-rule="nonzero"/></g><g clip-path="url(#id9)"><path fill="#0e994a" d="M 101.035156 99.75 L 83.089844 99.75 C 82.351562 99.75 81.75 99.148438 81.75 98.410156 L 81.75 80.464844 C 81.75 79.726562 82.351562 79.125 83.089844 79.125 L 101.035156 79.125 C 101.773438 79.125 102.375 79.726562 102.375 80.464844 L 102.375 98.410156 C 102.375 99.148438 101.773438 99.75 101.035156 99.75 " fill-opacity="1" fill-rule="nonzero"/></g><g clip-path="url(#id10)"><path fill="#c6422a" d="M 92.0625 55.875 C 86.367188 55.875 81.75 60.492188 81.75 66.1875 C 81.75 71.882812 86.367188 76.5 92.0625 76.5 C 97.757812 76.5 102.375 71.882812 102.375 66.1875 C 102.375 60.492188 97.757812 55.875 92.0625 55.875 " fill-opacity="1" fill-rule="nonzero"/></g></svg>